<svg id="Capa_1" data-name="Capa 1" xmlns="http://www.w3.org/2000/svg" viewBox="0 0 1592.28 982.93"><defs><style>.cls-1{fill:#fff980;opacity:0.12;}.cls-1,.cls-2,.cls-3,.cls-4{stroke:#fff;stroke-miterlimit:10;}.cls-2{fill:#c5f7f9;}.cls-3{fill:#f9644b;opacity:0.11;}.cls-4{fill:#e6ffff;opacity:0.32;}</style></defs><title>bg</title><path class="cls-1" d="M432.5,188.5s-275,129-42,280,431-209,431-209S705.5,17.5,432.5,188.5Z" transform="translate(-296.31 -28.24)"/><path class="cls-2" d="M547.5-180.5" transform="translate(-296.31 -28.24)"/><path class="cls-3" d="M1338.5,254.5s-288-70-295,234c0,0-369-114-420,213s227,309,227,309,392-5,440-256c0,0,357-46,364-215s-171-292-171-292S1395.5,116.5,1338.5,254.5Z" transform="translate(-296.31 -28.24)"/><path class="cls-4" d="M1421.5,41.5s-459,414-31,518,558-221,473-243-284.61,16.06-284.61,16.06S1771.5,99.5,1610.5,92.5C1610.5,92.5,1555.5-5.5,1421.5,41.5Z" transform="translate(-296.31 -28.24)"/></svg>